<?xml version="1.0" encoding="UTF-8" standalone="no"?>
<svg
   xmlns:dc="http://purl.org/dc/elements/1.1/"
   xmlns:cc="http://creativecommons.org/ns#"
   xmlns:rdf="http://www.w3.org/1999/02/22-rdf-syntax-ns#"
   xmlns:svg="http://www.w3.org/2000/svg"
   xmlns="http://www.w3.org/2000/svg"
   xmlns:sodipodi="http://sodipodi.sourceforge.net/DTD/sodipodi-0.dtd"
   xmlns:inkscape="http://www.inkscape.org/namespaces/inkscape"
   viewBox="0 0 512 512"
   id="svg2"
   version="1.1"
   inkscape:version="0.48.4 r9939"
   width="100%"
   height="100%"
   sodipodi:docname="drink-me.svg"
   inkscape:export-filename="C:\Users\Skylar\Documents\Apocalypse Labs\apps\TerranQuest\www\assets\ico\drink-me.png"
   inkscape:export-xdpi="90"
   inkscape:export-ydpi="90">
  <metadata
     id="metadata28">
    <rdf:RDF>
      <cc:Work
         rdf:about="">
        <dc:format>image/svg+xml</dc:format>
        <dc:type
           rdf:resource="http://purl.org/dc/dcmitype/StillImage" />
        <dc:title></dc:title>
      </cc:Work>
    </rdf:RDF>
  </metadata>
  <defs
     id="defs26">
    <filter
       id="filter3005"
       inkscape:label="Invert"
       x="0"
       y="0"
       width="1"
       height="1"
       inkscape:menu="Color"
       inkscape:menu-tooltip="Invert colors"
       color-interpolation-filters="sRGB">
      <feColorMatrix
         id="feColorMatrix3007"
         type="saturate"
         values="1"
         result="fbSourceGraphic" />
      <feColorMatrix
         id="feColorMatrix3009"
         in="fbSourceGraphic"
         values="-1 0 0 0 1 0 -1 0 0 1 0 0 -1 0 1 0 0 0 1 0 " />
    </filter>
    <filter
       id="filter3011"
       inkscape:label="Invert"
       x="0"
       y="0"
       width="1"
       height="1"
       inkscape:menu="Color"
       inkscape:menu-tooltip="Invert colors"
       color-interpolation-filters="sRGB">
      <feColorMatrix
         id="feColorMatrix3013"
         type="saturate"
         values="1"
         result="fbSourceGraphic" />
      <feColorMatrix
         id="feColorMatrix3015"
         in="fbSourceGraphic"
         values="-1 0 0 0 1 0 -1 0 0 1 0 0 -1 0 1 0 0 0 1 0 " />
    </filter>
  </defs>
  <sodipodi:namedview
     pagecolor="#ffffff"
     bordercolor="#666666"
     borderopacity="1"
     objecttolerance="10"
     gridtolerance="10"
     guidetolerance="10"
     inkscape:pageopacity="0"
     inkscape:pageshadow="2"
     inkscape:window-width="1366"
     inkscape:window-height="705"
     id="namedview24"
     showgrid="false"
     inkscape:zoom="0.4609375"
     inkscape:cx="-82.440678"
     inkscape:cy="256"
     inkscape:window-x="-8"
     inkscape:window-y="-8"
     inkscape:window-maximized="1"
     inkscape:current-layer="svg2" />
  <path
     style="fill:#ffffff;fill-opacity:1"
     d="m 220.67796,487.85283 c -30.23956,-3.94156 -60.46591,-13.9878 -81.99118,-27.25117 -42.827494,-26.3893 -78.207684,-80.34988 -89.026264,-135.77961 -2.76911,-14.18773 -3.03525,-35.45025 -0.58505,-46.74149 5.33388,-24.58013 19.26328,-41.85607 41.1888,-51.08439 3.29072,-1.38504 23.043544,-8.0095 43.895154,-14.72102 52.08128,-16.76344 69.11835,-23.20164 92.9209,-35.1142 24.42039,-12.22177 41.03944,-23.61271 57.68516,-39.53823 9.86031,-9.43369 23.19837,-25.07587 27.56204,-32.3233 1.15155,-1.91255 6.94244,-17.299388 12.86865,-34.192972 l 10.77494,-30.71558 7.84597,5.52921 c 4.31529,3.04106 8.18684,5.31451 8.60344,5.05209 0.4166,-0.26241 4.10997,-7.24491 8.2075,-15.51666 l 7.45006,-15.03955 5.16355,-0.64514 c 10.55738,-1.31906 28.45467,3.19651 42.43633,10.70689 22.88021,12.2903 41.8311,33.79355 43.66199,49.542534 l 0.60432,5.19819 -12.04987,12.74506 -12.04986,12.745078 7.3921,5.05674 c 4.06565,2.78121 7.38007,5.28174 7.36537,5.55674 -0.0147,0.275 -3.15332,2.975 -6.97471,6 l -6.948,5.5 -6.7e-4,52.6621 -6.7e-4,52.6621 3.80926,0.64357 c 5.24142,0.88554 13.5391,5.81133 16.64178,9.87915 1.41719,1.85804 3.24189,5.35258 4.0549,7.76566 2.1907,6.50224 24.51596,124.27825 23.69632,125.00897 -1.39056,1.23969 -67.20226,22.70007 -67.20226,21.91382 0,-0.44291 -5.19486,-27.96956 -11.54414,-61.17033 -10.50919,-54.95325 -11.51716,-61.21673 -11.24321,-69.86504 0.24471,-7.72507 0.78438,-10.52759 2.88846,-15 3.04603,-6.47454 9.00471,-12.71722 15.3535,-16.08524 l 4.54539,-2.41133 0,-45.32904 0,-45.32904 -5.75,4.77618 c -10.7785,8.95304 -12.53341,10.88151 -19.45443,21.37847 -16.11799,24.44582 -26.72253,53.2472 -31.66484,86 -3.56798,23.64516 -4.46011,44.27169 -3.50337,81 1.33423,51.22022 1.14399,83.53062 -0.52698,89.5 -5.18433,18.52055 -19.54487,35.11436 -38.82918,44.86767 -10.57847,5.35021 -24.79802,9.52811 -41.2712,12.12606 -11.53071,1.81849 -42.17732,1.83876 -56,0.037 z m 27.48646,-147.09865 c 32.2073,-2.96805 60.35308,-8.43163 79.9324,-15.51626 4.80608,-1.73904 8.89144,-3.66904 9.07856,-4.28888 0.18713,-0.61984 0.56527,-5.50717 0.8403,-10.86072 l 0.50005,-9.73374 -3.01876,1.56107 c -17.23186,8.91094 -49.57488,16.43947 -85.81901,19.97622 -22.38816,2.18466 -67.87576,2.18238 -89.92435,-0.005 -39.73163,-3.94079 -68.384454,-10.75364 -86.945874,-20.67334 l -7.37023,-3.93884 0.66461,8.77344 c 1.10331,14.56467 0.67406,13.78199 9.39521,17.13101 22.17884,8.51692 49.488524,14.2411 83.680634,17.53969 20.16419,1.94529 68.05219,1.96404 88.98646,0.0349 z m 187.52372,-56.68213 c 5.38013,-3.66168 7.37445,-7.10975 7.37445,-12.75 0,-5.64025 -1.99432,-9.08832 -7.37445,-12.75 -9.1348,-6.21708 -22.01018,1.24134 -22.01018,12.75 0,11.50866 12.87538,18.96708 22.01018,12.75 z M 72.134966,273.39162 c 0.89677,-1.451 20.01231,-8.62314 30.543004,-11.45971 12.91283,-3.47823 34.97444,-7.23517 54.39116,-9.26244 20.27975,-2.11737 69.94852,-2.3906 90.10883,-0.49569 37.23965,3.50023 68.73065,10.64386 86.40698,19.60113 2.93487,1.48722 5.66253,2.33123 6.06146,1.87558 0.39893,-0.45564 1.28411,-5.32844 1.96704,-10.82844 4.27803,-34.45256 15.76297,-67.98329 32.33731,-94.41004 2.55609,-4.07552 4.44803,-7.73267 4.20432,-8.127 -0.24371,-0.39433 -2.45182,-1.22277 -4.90691,-1.84097 -5.99741,-1.51016 -17.76002,-6.96092 -24.87097,-11.52514 -6.26373,-4.02041 -19.5903,-16.91099 -22.39961,-21.66678 -0.95195,-1.61154 -1.97131,-2.91241 -2.26522,-2.89083 -0.29391,0.0216 -3.00939,3.25064 -6.03439,7.1757 -8.12775,10.54609 -15.25014,17.9988 -26.46936,27.69699 -18.5909,16.07046 -35.1264,26.70274 -60.57979,38.95261 -22.38841,10.77481 -43.60357,18.71922 -88.45085,33.12204 -49.975584,16.04979 -51.515194,16.69896 -60.672584,25.58233 -6.41678,6.22476 -13.86154,19.43109 -10.95383,19.43109 0.5546,0 1.26714,-0.4187 1.58341,-0.93043 z M 406.94804,133.07205 c 6.96072,-5.6375 12.64887,-10.475 12.64034,-10.75 -0.016,-0.5148 -72.32437,-51.307132 -73.66299,-51.743862 -0.82976,-0.27072 -11.27529,29.294614 -11.2582,31.865552 0.0199,2.99798 9.61732,16.32461 16.1242,22.38954 7.04016,6.56199 16.75221,12.08918 26.88657,15.30132 15.08502,4.78127 14.46013,4.93205 29.27008,-7.06255 z"
     id="path3034"
     inkscape:connector-curvature="0" />
</svg>
